<?xml version="1.0" standalone="no"?>
<!DOCTYPE svg PUBLIC "-//W3C//DTD SVG 20010904//EN"
 "http://www.w3.org/TR/2001/REC-SVG-20010904/DTD/svg10.dtd">
<svg version="1.0" xmlns="http://www.w3.org/2000/svg"
 width="148.000000pt" height="148.000000pt" viewBox="0 0 148.000000 148.000000"
 preserveAspectRatio="xMidYMid meet">

<g transform="translate(0.000000,148.000000) scale(0.100000,-0.100000)"
fill="#000000" stroke="none">
<path d="M605 1466 c-148 -28 -274 -96 -385 -206 -153 -154 -230 -352 -216
-560 7 -111 27 -187 75 -285 95 -192 273 -337 481 -392 88 -23 272 -23 360 0
208 55 386 200 481 392 56 116 73 189 73 325 0 136 -17 209 -73 325 -94 191
-274 338 -476 390 -85 22 -236 27 -320 11z m103 -512 c40 -30 66 -87 57 -131
-7 -40 -62 -103 -90 -103 -12 0 -7 -9 18 -32 28 -27 107 -162 107 -183 0 -3
-35 -5 -77 -3 l-78 3 -41 75 c-47 84 -76 120 -99 120 -12 0 -15 -17 -15 -100
l0 -100 -75 0 -75 0 0 241 0 242 170 -5 c150 -4 173 -7 198 -24z m485 -3 c41
-20 77 -64 77 -94 0 -12 -16 -16 -72 -19 -40 -2 -75 1 -77 6 -18 43 -104 63
-131 31 -21 -25 -3 -43 57 -55 76 -16 174 -48 193 -63 59 -46 67 -127 20 -181
-44 -50 -107 -71 -211 -71 -111 1 -170 23 -210 78 -46 64 -41 73 43 82 63 6
74 4 83 -10 24 -42 42 -56 77 -62 70 -11 117 48 65 81 -12 9 -55 22 -95 31
-125 26 -182 69 -182 136 0 39 32 89 72 110 62 33 223 33 291 0z"/>
<path d="M490 829 l0 -52 51 6 c59 7 79 20 79 51 0 34 -20 46 -77 46 l-53 0 0
-51z"/>
</g>
</svg>
